HIERARCHY
ROOT Hips
{
	OFFSET 55.720501 -36.664516 91.631195
	CHANNELS 6 Xposition Yposition Zposition Xrotation Yrotation Zrotation
	JOINT spine
	{
		OFFSET 0.000000 -0.393700 6.846367
		CHANNELS 3 Xrotation Yrotation Zrotation
		JOINT spine1
		{
			OFFSET 0.000000 -0.000004 9.496208
			CHANNELS 3 Xrotation Yrotation Zrotation
			JOINT spine2
			{
				OFFSET 0.000000 0.000000 9.099091
				CHANNELS 3 Xrotation Yrotation Zrotation
				JOINT Neck
				{
					OFFSET 0.000000 -1.113785 23.361206
					CHANNELS 3 Xrotation Yrotation Zrotation
					JOINT Head
					{
						OFFSET 0.000000 0.000000 7.058014
						CHANNELS 3 Xrotation Yrotation Zrotation
						End Site
						{
							OFFSET 0.000000 5.634186 17.084396
						}
					}
				}
				JOINT RightShoulder
				{
					OFFSET -3.831360 0.533489 9.826309
					CHANNELS 3 Xrotation Yrotation Zrotation
					JOINT RightArm
					{
						OFFSET 0.000000 -0.000004 12.888107
						CHANNELS 3 Xrotation Yrotation Zrotation
						JOINT RightArmRoll
						{
							OFFSET 0.000000 0.000000 6.506165
							CHANNELS 3 Xrotation Yrotation Zrotation
							JOINT RightForeArm
							{
								OFFSET 0.000000 -0.000004 18.950104
								CHANNELS 3 Xrotation Yrotation Zrotation
								JOINT RightForeArmRoll
								{
									OFFSET 0.000000 0.000000 7.300919
									CHANNELS 3 Xrotation Yrotation Zrotation
									JOINT RightHand
									{
										OFFSET 0.000000 -0.000004 14.651398
										CHANNELS 3 Xrotation Yrotation Zrotation
										End Site
										{
											OFFSET 0.000000 0.000000 0.100006
										}
									}
								}
							}
						}
					}
				}
				JOINT LeftShoulder
				{
					OFFSET 3.831360 0.533489 9.826309
					CHANNELS 3 Xrotation Yrotation Zrotation
					JOINT LeftArm
					{
						OFFSET 0.000000 -0.000004 12.888107
						CHANNELS 3 Xrotation Yrotation Zrotation
						JOINT LeftArmRoll
						{
							OFFSET 0.000000 0.000000 6.506165
							CHANNELS 3 Xrotation Yrotation Zrotation
							JOINT LeftForeArm
							{
								OFFSET 0.000000 -0.000004 18.950104
								CHANNELS 3 Xrotation Yrotation Zrotation
								JOINT LeftForeArmRoll
								{
									OFFSET 0.000000 0.000000 7.300919
									CHANNELS 3 Xrotation Yrotation Zrotation
									JOINT LeftHand
									{
										OFFSET 0.000000 -0.000004 14.651398
										CHANNELS 3 Xrotation Yrotation Zrotation
										End Site
										{
											OFFSET 0.000000 0.000000 0.100006
										}
									}
								}
							}
						}
					}
				}
			}
		}
	}
	JOINT RightUpLeg
	{
		OFFSET -6.068371 0.933475 -1.112778
		CHANNELS 3 Xrotation Yrotation Zrotation
		JOINT RightUpLegRoll
		{
			OFFSET 0.000000 -0.000004 17.179604
			CHANNELS 3 Xrotation Yrotation Zrotation
			JOINT RightLeg
			{
				OFFSET 0.000000 0.000004 -21.274300
				CHANNELS 3 Xrotation Yrotation Zrotation
				JOINT RightLegRoll
				{
					OFFSET 0.000000 -0.000004 21.343903
					CHANNELS 3 Xrotation Yrotation Zrotation
					JOINT RightFoot
					{
						OFFSET 0.000000 0.000000 17.765198
						CHANNELS 3 Xrotation Yrotation Zrotation
						JOINT RightToeBase
						{
							OFFSET 0.000000 -0.000004 14.850815
							CHANNELS 3 Xrotation Yrotation Zrotation
							End Site
							{
								OFFSET 0.006294 0.829006 7.192123
							}
						}
					}
				}
			}
		}
	}
	JOINT LeftUpLeg
	{
		OFFSET 6.068371 0.933475 -1.112778
		CHANNELS 3 Xrotation Yrotation Zrotation
		JOINT LeftUpLegRoll
		{
			OFFSET 0.000000 -0.000004 17.179703
			CHANNELS 3 Xrotation Yrotation Zrotation
			JOINT LeftLeg
			{
				OFFSET 0.000000 -0.000004 21.274200
				CHANNELS 3 Xrotation Yrotation Zrotation
				JOINT LeftLegRoll
				{
					OFFSET 0.000000 0.000000 21.541199
					CHANNELS 3 Xrotation Yrotation Zrotation
					JOINT LeftFoot
					{
						OFFSET 0.000000 -0.000004 17.567902
						CHANNELS 3 Xrotation Yrotation Zrotation
						JOINT LeftToeBase
						{
							OFFSET 0.000000 -0.000004 14.850800
							CHANNELS 3 Xrotation Yrotation Zrotation
							End Site
							{
								OFFSET -0.028210 0.829002 7.192139
							}
						}
					}
				}
			}
		}
	}
}
MOTION
Frames: 11
Frame Time: 0.041667
53.802601 5.424816 58.464977 0.894319 2.330936 -2.448536 -0.758126 -0.293277 0.336513 2.513804 -0.591461 0.671971 4.158857 -0.583576 0.678988 12.467603 0.911894 -0.067608 -4.632696 -0.714923 -0.107907 5.699924 -67.193700 5.424268 -57.520718 -120.535121 -71.494732 0.000001 -0.000001 -0.000003 38.022171 -16.213752 4.962603 0.000000 -0.000001 -3.007040 -4.999742 -7.998833 -0.000010 -6.473185 58.379731 7.561255 -53.087464 131.635832 61.397349 0.000005 0.000001 0.000004 20.376066 24.907916 -4.692994 -0.000002 -0.000004 2.999998 -5.000274 7.999898 -0.000148 -82.271548 -176.899687 2.940461 179.999991 -0.000005 -1.229006 105.798647 -0.535722 -3.181663 -0.000001 0.000005 1.714671 66.260533 7.258235 1.408101 25.456955 -7.355614 0.000012 -85.711600 163.267776 -2.686849 -0.000005 -0.000003 -0.883635 -81.757474 -1.224704 3.017490 -0.000002 0.000001 -1.939809 67.451526 -7.184961 -1.492943 25.456950 7.355613 -0.000012 
53.804401 5.429996 58.463982 0.920928 2.326690 -2.449781 -0.754102 -0.292557 0.336277 2.520123 -0.587997 0.671458 4.165174 -0.580102 0.678435 12.451614 0.886261 -0.064677 -4.640367 -0.689081 -0.104371 5.603757 -67.183257 5.318188 -57.453946 -120.581908 -71.432680 0.000002 -0.000000 -0.000005 38.049334 -16.194933 4.957567 -0.000003 0.000001 -3.007038 -4.999746 -7.998836 -0.000007 -6.458625 58.324802 7.539361 -52.990441 131.672114 61.212954 0.000002 0.000001 0.000004 20.370855 24.834230 -4.666845 -0.000001 -0.000004 3.000001 -5.000279 7.999895 -0.000147 -82.300870 -176.900793 2.939087 179.999991 -0.000005 -1.229006 105.797103 -0.536764 -3.182523 -0.000002 0.000005 1.714670 66.260744 7.258261 1.407792 25.456952 -7.355613 0.000013 -85.735868 163.260495 -2.694453 -0.000005 -0.000005 -0.882644 -81.760588 -1.218420 3.022081 -0.000002 0.000001 -1.939860 67.451622 -7.184936 -1.493431 25.456952 7.355613 -0.000012 
53.810398 5.439137 58.466076 0.947369 2.322153 -2.450810 -0.750012 -0.291834 0.336057 2.526571 -0.584404 0.670969 4.171622 -0.576502 0.677905 12.435422 0.860260 -0.061637 -4.648600 -0.662749 -0.100704 5.507701 -67.172738 5.212247 -57.387905 -120.627534 -71.370300 0.000001 -0.000002 -0.000003 38.077441 -16.175099 4.952164 -0.000003 0.000001 -3.007040 -4.999745 -7.998834 -0.000009 -6.441676 58.269498 7.514585 -52.892329 131.706524 61.025240 0.000002 0.000001 0.000005 20.367600 24.758066 -4.640354 -0.000000 -0.000003 3.000000 -5.000278 7.999897 -0.000147 -82.330219 -176.901066 2.937176 179.999991 -0.000005 -1.229006 105.795758 -0.538083 -3.183345 -0.000001 0.000005 1.714670 66.260949 7.258246 1.407374 25.456957 -7.355616 0.000012 -85.760163 163.253255 -2.702445 -0.000005 -0.000004 -0.881641 -81.763792 -1.211972 3.026824 -0.000002 0.000001 -1.939931 67.451745 -7.184980 -1.493732 25.456948 7.355612 -0.000012 
53.796600 5.444981 58.461281 0.973689 2.317416 -2.451695 -0.745872 -0.291110 0.335845 2.533110 -0.580724 0.670498 4.178160 -0.572811 0.677390 12.419134 0.834001 -0.058527 -4.657227 -0.636075 -0.096941 5.411783 -67.162179 5.106464 -57.321393 -120.672736 -71.306430 0.000001 0.000000 -0.000002 38.106220 -16.154477 4.946445 -0.000003 -0.000000 -3.007040 -4.999746 -7.998839 -0.000006 -6.423109 58.214085 7.487847 -52.792100 131.740757 60.833175 0.000001 0.000001 0.000004 20.365672 24.680282 -4.613616 0.000000 -0.000003 3.000002 -5.000273 7.999900 -0.000151 -82.359671 -176.900807 2.935289 179.999991 -0.000004 -1.229006 105.794610 -0.539680 -3.184139 -0.000001 0.000005 1.714670 66.261065 7.258258 1.407068 25.456952 -7.355615 0.000013 -85.784464 163.246043 -2.710644 -0.000005 -0.000003 -0.880628 -81.767084 -1.205414 3.031595 -0.000002 0.000001 -1.940022 67.451950 -7.184963 -1.494214 25.456947 7.355614 -0.000013 
53.803501 5.435608 58.455681 0.999937 2.312548 -2.452503 -0.741707 -0.290385 0.335640 2.539699 -0.576993 0.670035 4.184748 -0.569069 0.676885 12.402751 0.807594 -0.055382 -4.666072 -0.609205 -0.093120 5.315973 -67.151558 5.000807 -57.254771 -120.717747 -71.241953 0.000001 -0.000000 0.000001 38.135333 -16.133458 4.940558 -0.000002 0.000001 -3.007040 -4.999746 -7.998835 -0.000007 -6.403627 58.158405 7.459992 -52.691071 131.774525 60.639376 0.000002 0.000002 0.000004 20.364605 24.601430 -4.586739 0.000001 -0.000001 3.000002 -5.000278 7.999897 -0.000147 -82.389041 -176.900301 2.933830 179.999991 -0.000006 -1.229006 105.793558 -0.541280 -3.184920 -0.000001 0.000005 1.714671 66.261175 7.258269 1.406664 25.456955 -7.355614 0.000013 -85.808746 163.238775 -2.718928 -0.000005 -0.000004 -0.879612 -81.770465 -1.198777 3.036542 -0.000002 0.000000 -1.940119 67.452155 -7.184942 -1.494599 25.456950 7.355614 -0.000013 
53.801701 5.443707 58.464581 1.026175 2.307661 -2.453284 -0.737532 -0.289660 0.335435 2.546297 -0.573248 0.669575 4.191344 -0.565315 0.676381 12.386366 0.781148 -0.052241 -4.674981 -0.582288 -0.089278 5.220250 -67.140773 4.895245 -57.188242 -120.762703 -71.177490 0.000001 -0.000001 -0.000000 38.164618 -16.112324 4.934642 -0.000003 0.000002 -3.007039 -4.999742 -7.998836 -0.000006 -6.383968 58.102739 7.431913 -52.589936 131.808321 60.445282 -0.000000 0.000001 0.000005 20.363668 24.522471 -4.559831 0.000000 -0.000004 3.000000 -5.000274 7.999899 -0.000150 -82.418356 -176.899714 2.932468 179.999991 -0.000005 -1.229006 105.792500 -0.542879 -3.185701 -0.000002 0.000005 1.714670 66.261263 7.258243 1.406354 25.456955 -7.355614 0.000013 -85.833054 163.231549 -2.727316 -0.000005 -0.000004 -0.878593 -81.773852 -1.192122 3.041399 -0.000002 0.000001 -1.940220 67.452278 -7.184992 -1.495001 25.456953 7.355612 -0.000013 
53.803501 5.437531 58.475777 1.052441 2.302832 -2.454093 -0.733372 -0.288935 0.335227 2.552866 -0.569530 0.669107 4.197922 -0.561587 0.675871 12.369989 0.754774 -0.049138 -4.683778 -0.555471 -0.085453 5.124565 -67.129934 4.789729 -57.122057 -120.807796 -71.113539 0.000001 -0.000001 -0.000002 38.193742 -16.091396 4.928781 -0.000005 0.000000 -3.007038 -4.999745 -7.998832 -0.000004 -6.364859 58.047134 7.404494 -52.489314 131.842472 60.252329 0.000001 0.000001 0.000004 20.362512 24.443942 -4.533022 -0.000001 -0.000002 2.999999 -5.000272 7.999902 -0.000150 -82.447692 -176.899359 2.931499 179.999991 -0.000005 -1.229006 105.791345 -0.544473 -3.186481 -0.000001 0.000005 1.714670 66.261373 7.258257 1.405948 25.456955 -7.355614 0.000012 -85.857343 163.224254 -2.735597 -0.000005 -0.000004 -0.877578 -81.777151 -1.185516 3.046297 -0.000002 0.000001 -1.940320 67.452483 -7.184970 -1.495382 25.456948 7.355616 -0.000013 
53.793800 5.443554 58.466381 1.078790 2.298143 -2.455014 -0.729248 -0.288212 0.335013 2.559385 -0.565875 0.668627 4.204430 -0.557923 0.675349 12.353715 0.728581 -0.046111 -4.692289 -0.528899 -0.081683 5.028966 -67.119040 4.684299 -57.056692 -120.853340 -71.051091 0.000000 -0.000000 -0.000001 38.222265 -16.071102 4.923080 0.000000 -0.000000 -3.007039 -4.999745 -7.998835 -0.000007 -6.347019 57.991673 7.378597 -52.389801 131.877388 60.061986 0.000003 0.000001 0.000005 20.360382 24.366611 -4.506377 0.000000 -0.000002 2.999999 -5.000275 7.999899 -0.000147 -82.477048 -176.899249 2.929710 179.999991 -0.000005 -1.229006 105.790198 -0.546069 -3.187264 -0.000001 0.000005 1.714670 66.261584 7.258240 1.405632 25.456955 -7.355615 0.000013 -85.881651 163.216973 -2.743574 -0.000005 -0.000005 -0.876568 -81.780450 -1.178988 3.051027 -0.000002 0.000001 -1.940400 67.452701 -7.184988 -1.495773 25.456947 7.355613 -0.000013 
53.798000 5.413437 58.453083 1.105274 2.293694 -2.456081 -0.725176 -0.287490 0.334787 2.565794 -0.562323 0.668126 4.210848 -0.554361 0.674806 12.337642 0.702680 -0.043199 -4.700358 -0.502722 -0.078006 4.933400 -67.108091 4.578899 -56.992120 -120.899321 -70.990439 0.000000 -0.000000 -0.000001 38.250115 -16.051610 4.917664 -0.000004 -0.000000 -3.007042 -4.999744 -7.998835 -0.000008 -6.331167 57.936520 7.355092 -52.292082 131.913506 59.875644 0.000004 0.000000 0.000005 20.356725 24.291225 -4.480006 -0.000002 -0.000002 3.000000 -5.000278 7.999899 -0.000149 -82.506465 -176.899850 2.928262 179.999991 -0.000005 -1.229006 105.788757 -0.547111 -3.187126 -0.000001 0.000005 1.714671 66.261796 7.258266 1.405223 25.456955 -7.355614 0.000013 -85.905967 163.209747 -2.751346 -0.000005 -0.000004 -0.875568 -81.783688 -1.172586 3.055773 -0.000002 0.000001 -1.940472 67.452797 -7.184998 -1.496167 25.456948 7.355612 -0.000012 
53.800900 5.420666 58.462185 1.131964 2.289564 -2.457378 -0.721178 -0.286770 0.334544 2.572062 -0.558910 0.667597 4.217115 -0.550940 0.674237 12.321674 0.677181 -0.040432 -4.707803 -0.477084 -0.074463 4.837846 -67.097074 4.473501 -56.927455 -120.946599 -70.930989 0.000001 -0.000000 -0.000003 38.276845 -16.033265 4.912563 -0.000001 0.000001 -3.007037 -4.999743 -7.998837 -0.000008 -6.318022 57.881728 7.334840 -52.195804 131.951769 59.693408 0.000001 0.000001 0.000004 20.351117 24.218519 -4.454114 -0.000001 -0.000004 3.000002 -5.000274 7.999897 -0.000146 -82.535842 -176.901121 2.925887 179.999991 -0.000004 -1.229006 105.787213 -0.548148 -3.188000 -0.000002 0.000005 1.714670 66.262008 7.258251 1.404906 25.456955 -7.355614 0.000013 -85.930255 163.202357 -2.758625 -0.000005 -0.000004 -0.874583 -81.786748 -1.166377 3.060235 -0.000002 0.000001 -1.940510 67.452899 -7.184971 -1.496655 25.456948 7.355615 -0.000014 
53.792999 5.407459 58.462879 1.158884 2.285843 -2.458959 -0.717277 -0.286054 0.334281 2.578151 -0.555675 0.667030 4.223214 -0.547698 0.673635 12.306008 0.652194 -0.037851 -4.714475 -0.452134 -0.071092 4.742326 -67.086016 4.368125 -56.865706 -120.994247 -70.876491 0.000001 -0.000001 -0.000002 38.302304 -16.016421 4.908014 -0.000000 -0.000002 -3.007042 -4.999744 -7.998837 -0.000004 -6.308281 57.827359 7.318682 -52.103350 131.991357 59.519115 -0.000000 0.000000 0.000003 20.342784 24.149169 -4.428705 0.000001 -0.000004 2.999997 -5.000277 7.999895 -0.000149 -82.565335 -176.903429 2.922840 179.999991 -0.000005 -1.227995 105.785314 -0.548355 -3.187981 -0.000001 0.000005 1.714670 66.262411 7.258221 1.404672 25.456953 -7.355615 0.000013 -85.954550 163.195008 -2.765403 -0.000005 -0.000004 -0.873613 -81.789548 -1.160415 3.064618 -0.000002 0.000001 -1.940510 67.452899 -7.184971 -1.497155 25.456953 7.355613 -0.000013 
